<!--?xml version="1.0" encoding="utf-8"?-->
<!-- Generator: Adobe Illustrator 18.1.1, SVG Export Plug-In . SVG Version: 6.00 Build 0)  -->

<svg version="1.1" id="_x32_" xmlns="http://www.w3.org/2000/svg" xmlns:xlink="http://www.w3.org/1999/xlink" x="0px" y="0px" viewBox="0 0 512 512" style="opacity: 1;" xml:space="preserve">
<style type="text/css">
	.st0{fill:#4B4B4B;}
</style>
<g>
	<path class="st0" d="M201.219,136.099c4.605,0,6.576-9.21,6.576-11.838c0-0.25,0-0.445,0-0.611
		c0,17.787,14.42,32.207,32.207,32.207h15.817h15.817c17.794,0,32.207-14.42,32.207-32.207c0,0.166,0,0.362,0,0.611
		c0,2.627,1.978,11.838,6.584,11.838c4.605,0,11.181-2.627,11.181-9.867c0-7.241,0-27.633,0-35.522c0-6.07,0.332-12.834-6.9-12.834
		c0,0,6.213-22.016-9.543-43.743c-10.826-14.934-25.239-20.12-35.695-21.819C268.284,5.33,262.221,0,254.891,0
		c-7.444,0-13.59,5.504-14.632,12.661c-10.245,2.009-23.6,7.43-33.778,21.472c-15.756,21.728-9.535,43.743-9.535,43.743
		c-7.24,0-6.908,6.764-6.908,12.834c0,7.889,0,28.281,0,35.522C190.038,133.472,196.614,136.099,201.219,136.099z" style="fill: rgb(75, 75, 75);"></path>
	<path class="st0" d="M138.76,280.608c29.46,0,39.274-25.254,39.274-55.408c0-10.516,2.106-28.047-8.418-28.047
		c-10.517,0-10.517,11.913-10.517,11.913v16.134h-4.908c0,0,0-7.014,0-16.134c0-9.112,4.206-39.274-16.836-44.884
		c-21.041-5.609-38.572,9.12-38.572,30.162c0,8.41,0,48.386,0,48.386C98.785,266.581,109.301,280.608,138.76,280.608z" style="fill: rgb(75, 75, 75);"></path>
	<rect x="32.657" y="484.647" class="st0" width="446.687" height="27.353" style="fill: rgb(75, 75, 75);"></rect>
	<path class="st0" d="M353.489,434.011c-4.462-3.556-9.694-6.606-15.763-9.014c-6.078,2.408-11.317,5.458-15.779,9.014
		c-4.817,3.836-8.742,8.259-11.853,13.076c-5.459,8.448-8.41,18.165-9.052,28.093h73.353c-0.46-7.097-2.091-14.088-4.982-20.58
		C365.947,446.831,360.715,439.772,353.489,434.011z" style="fill: rgb(75, 75, 75);"></path>
	<path class="st0" d="M437.647,434.011c-4.462-3.556-9.702-6.606-15.772-9.014c-6.07,2.408-11.309,5.458-15.771,9.014
		c-4.816,3.836-8.743,8.259-11.861,13.076c-5.451,8.448-8.395,18.165-9.044,28.093h73.361c-0.469-7.097-2.107-14.088-4.99-20.58
		C450.103,446.831,444.864,439.772,437.647,434.011z" style="fill: rgb(75, 75, 75);"></path>
	<path class="st0" d="M269.333,434.011c-4.462-3.556-9.701-6.606-15.771-9.014c-6.07,2.408-11.31,5.458-15.764,9.014
		c-4.817,3.836-8.75,8.259-11.86,13.076c-5.451,8.448-8.403,18.165-9.052,28.093h73.353c-0.46-7.097-2.099-14.088-4.983-20.58
		C281.79,446.831,276.558,439.772,269.333,434.011z" style="fill: rgb(75, 75, 75);"></path>
	<path class="st0" d="M185.184,434.011c-4.47-3.556-9.702-6.606-15.779-9.014c-6.07,2.408-11.302,5.458-15.771,9.014
		c-4.81,3.836-8.735,8.259-11.853,13.076c-5.451,8.448-8.403,18.165-9.052,28.093h73.36c-0.468-7.097-2.099-14.088-4.99-20.58
		C197.641,446.831,192.401,439.772,185.184,434.011z" style="fill: rgb(75, 75, 75);"></path>
	<path class="st0" d="M116.942,454.6c-3.466-7.769-8.698-14.828-15.923-20.588c-4.454-3.556-9.694-6.606-15.764-9.014
		c-6.07,2.408-11.316,5.458-15.771,9.014c-4.824,3.836-8.75,8.259-11.861,13.076c-5.45,8.448-8.41,18.165-9.052,28.093h73.353
		C121.471,468.083,119.833,461.092,116.942,454.6z" style="fill: rgb(75, 75, 75);"></path>
	<path class="st0" d="M196.682,237.439h33.74v8.418h-30.433c0.408,0.928,0.83,1.849,1.268,2.755
		c4.545,9.505,10.419,17.787,17.954,23.994c4.311,3.548,9.165,6.44,14.699,8.523c6.326,2.386,13.559,3.737,21.909,3.737
		c10.577,0,19.35-2.152,26.779-5.851c7.414-3.714,13.522-8.992,18.633-15.462c3.405-4.319,6.349-9.15,8.878-14.36
		c0.536-1.094,1.042-2.212,1.54-3.336h-29.686v-8.418h32.992c1.216-3.465,2.295-7.029,3.246-10.652
		c2.748-10.472,4.447-21.388,5.474-31.762c1.05-10.584,1.412-20.603,1.525-29.051c-4.371-0.672-8.871-1.02-13.484-1.02h-55.898
		h-55.89c-4.613,0-9.113,0.348-13.492,1.02c0.136,10.093,0.634,22.415,2.227,35.264C190.159,213.348,192.651,225.91,196.682,237.439
		z" style="fill: rgb(75, 75, 75);"></path>
	<path class="st0" d="M324.574,333.169h38.927c2.476-0.007,4.688-0.996,6.318-2.619c1.624-1.631,2.612-3.843,2.62-6.327
		c-0.008-2.476-0.996-4.688-2.62-6.32c-1.63-1.622-3.842-2.619-6.318-2.619h-38.927c-2.484,0-4.696,0.997-6.326,2.619
		c-1.623,1.631-2.612,3.843-2.612,6.32c0,2.484,0.989,4.696,2.612,6.327C319.879,332.173,322.091,333.162,324.574,333.169z" style="fill: rgb(75, 75, 75);"></path>
	<path class="st0" d="M73.78,421.102c3.118-1.714,6.448-3.247,10.011-4.568l1.464-0.536l1.457,0.536
		c7.498,2.778,14.02,6.486,19.562,10.894c5.534,4.417,10.079,9.528,13.68,15.099c3.216,4.984,5.655,10.313,7.376,15.84
		c0.755-2.439,1.654-4.84,2.703-7.188c3.971-8.924,10.048-17.13,18.361-23.752c5.542-4.409,12.057-8.116,19.554-10.894l1.458-0.536
		l1.465,0.536c7.497,2.778,14.012,6.486,19.554,10.894c5.534,4.417,10.094,9.528,13.688,15.099
		c3.209,4.984,5.655,10.313,7.376,15.84c0.763-2.439,1.654-4.84,2.695-7.188c3.971-8.924,10.056-17.13,18.368-23.752
		c5.534-4.409,12.057-8.116,19.554-10.894l1.457-0.536l1.464,0.536c7.497,2.778,14.012,6.486,19.554,10.894
		c5.541,4.417,10.094,9.528,13.68,15.099c3.216,4.984,5.662,10.313,7.376,15.84c0.762-2.439,1.661-4.84,2.703-7.188
		c3.979-8.924,10.056-17.13,18.368-23.752c5.534-4.409,12.05-8.116,19.554-10.894l1.465-0.536l1.457,0.536
		c7.497,2.778,14.012,6.486,19.546,10.894c5.542,4.417,10.094,9.528,13.696,15.099c3.208,4.984,5.646,10.313,7.376,15.84
		c0.754-2.439,1.653-4.84,2.695-7.188c3.972-8.924,10.056-17.13,18.361-23.752c5.541-4.409,12.057-8.116,19.561-10.894l1.457-0.536
		l1.465,0.536c7.082,2.628,13.28,6.085,18.618,10.185c1.646-3.208,3.035-6.674,4.114-10.442
		c20.604-71.971-49.269-80.888-49.269-80.888s0-44.188,0-79.958c0-43.811-25.971-78.057-63.206-87.728
		c-0.174,9.966-0.702,21.978-2.257,34.57c-2.084,16.715-5.949,34.472-13.356,49.972c-4.938,10.328-11.483,19.666-20.196,26.854
		c-4.975,4.107-10.66,7.489-17.077,9.913c-7.338,2.763-15.628,4.28-24.892,4.274c-11.717,0.007-21.879-2.424-30.524-6.742
		c-8.644-4.311-15.741-10.487-21.494-17.78c-3.828-4.862-7.074-10.222-9.837-15.884c-3.156-6.5-5.678-13.409-7.701-20.475
		c-0.778,14.789-4.009,26.945-9.633,36.186c-8.139,13.363-21.23,20.437-37.87,20.437c-9.309,0-17.281-1.321-23.917-3.926
		c0,16.881,0,19.885,0,19.885c0,12.08,9.784,21.872,21.864,21.872h39.017v9.467h-62.618c-23.646,0-57.31,29.452-39.863,83.236
		C73.41,420.082,73.606,420.588,73.78,421.102z M312.299,311.955c3.126-3.133,7.497-5.088,12.276-5.088h20.505v-38.919h8.418v38.919
		h10.004c4.778,0,9.135,1.955,12.268,5.088c3.132,3.126,5.088,7.489,5.088,12.268c0,4.779-1.956,9.15-5.088,12.276
		c-3.134,3.134-7.49,5.089-12.268,5.081h-38.927c-4.779,0.008-9.15-1.947-12.276-5.081c-3.133-3.126-5.081-7.496-5.081-12.276
		C307.217,319.444,309.165,315.08,312.299,311.955z" style="fill: rgb(75, 75, 75);"></path>
	<path class="st0" d="M162.686,189.921c2.016-0.762,4.318-1.185,6.931-1.185c3.669,0,6.946,1.132,9.626,3.27
		c-0.755-8.796-1.072-17.086-1.193-24.295c-6.516,1.698-12.691,4.137-18.436,7.255c0.574,1.548,1.094,3.201,1.533,4.99
		C161.961,183.278,162.436,186.652,162.686,189.921z" style="fill: rgb(75, 75, 75);"></path>
</g>
</svg>
